<mxfile host="65bd71144e" pages="4">
    <diagram id="lXvHTa_5nN4wE7qPWm6n" name="index">
        <mxGraphModel dx="993" dy="793" grid="0" gridSize="10" guides="1" tooltips="1" connect="1" arrows="1" fold="1" page="1" pageScale="1" pageWidth="827" pageHeight="583" math="0" shadow="0">
            <root>
                <mxCell id="0"/>
                <mxCell id="1" parent="0"/>
                <mxCell id="leR2JiKTpN4TVIr5Cajt-1" value="KDALadder" style="text;html=1;align=center;verticalAlign=middle;resizable=0;points=[];autosize=1;fontSize=30;fontStyle=0" parent="1" vertex="1">
                    <mxGeometry x="340" y="40" width="170" height="40" as="geometry"/>
                </mxCell>
                <mxCell id="leR2JiKTpN4TVIr5Cajt-4" value="SIGN IN" style="dashed=0;align=center;fontSize=20;shape=rect;fillColor=#2196F3;strokeColor=none;fontStyle=1;shadow=1;fontColor=#ffffff;" parent="1" vertex="1">
                    <mxGeometry x="330" y="450" width="210" height="70" as="geometry"/>
                </mxCell>
                <mxCell id="leR2JiKTpN4TVIr5Cajt-5" value="Secret" style="rounded=0;whiteSpace=wrap;html=1;fontSize=20;" parent="1" vertex="1">
                    <mxGeometry x="237" y="240" width="396" height="60" as="geometry"/>
                </mxCell>
            </root>
        </mxGraphModel>
    </diagram>
    <diagram id="VdFu4r-m9Wqo9Tte_WKm" name="ladder">
        <mxGraphModel dx="993" dy="793" grid="0" gridSize="10" guides="1" tooltips="1" connect="1" arrows="1" fold="1" page="1" pageScale="1" pageWidth="583" pageHeight="827" math="0" shadow="0">
            <root>
                <mxCell id="iv7uDxefKVzlSarNW6j3-0"/>
                <mxCell id="iv7uDxefKVzlSarNW6j3-1" parent="iv7uDxefKVzlSarNW6j3-0"/>
                <mxCell id="iv7uDxefKVzlSarNW6j3-2" value="KDA 天梯排名" style="text;html=1;align=center;verticalAlign=middle;resizable=0;points=[];autosize=1;fontSize=30;fontColor=#3399FF;" parent="iv7uDxefKVzlSarNW6j3-1" vertex="1">
                    <mxGeometry x="130" y="25" width="200" height="40" as="geometry"/>
                </mxCell>
                <mxCell id="iv7uDxefKVzlSarNW6j3-3" value="wei" style="text;html=1;align=center;verticalAlign=middle;resizable=0;points=[];autosize=1;fontSize=24;" parent="iv7uDxefKVzlSarNW6j3-1" vertex="1">
                    <mxGeometry x="70" y="100" width="50" height="30" as="geometry"/>
                </mxCell>
                <mxCell id="iv7uDxefKVzlSarNW6j3-4" value="kin" style="text;html=1;align=center;verticalAlign=middle;resizable=0;points=[];autosize=1;fontSize=24;" parent="iv7uDxefKVzlSarNW6j3-1" vertex="1">
                    <mxGeometry x="70" y="150" width="50" height="30" as="geometry"/>
                </mxCell>
                <mxCell id="iv7uDxefKVzlSarNW6j3-5" value="cheng" style="text;html=1;align=center;verticalAlign=middle;resizable=0;points=[];autosize=1;fontSize=24;" parent="iv7uDxefKVzlSarNW6j3-1" vertex="1">
                    <mxGeometry x="40" y="200" width="80" height="30" as="geometry"/>
                </mxCell>
                <mxCell id="iv7uDxefKVzlSarNW6j3-6" value="gui" style="text;html=1;align=center;verticalAlign=middle;resizable=0;points=[];autosize=1;fontSize=24;" parent="iv7uDxefKVzlSarNW6j3-1" vertex="1">
                    <mxGeometry x="70" y="250" width="50" height="30" as="geometry"/>
                </mxCell>
                <mxCell id="iv7uDxefKVzlSarNW6j3-9" value="" style="endArrow=none;html=1;fontSize=24;jumpSize=14;strokeWidth=3;strokeColor=#858585;" parent="iv7uDxefKVzlSarNW6j3-1" edge="1">
                    <mxGeometry width="50" height="50" relative="1" as="geometry">
                        <mxPoint x="130" y="390" as="sourcePoint"/>
                        <mxPoint x="130" y="100" as="targetPoint"/>
                    </mxGeometry>
                </mxCell>
                <mxCell id="iv7uDxefKVzlSarNW6j3-10" value="" style="rounded=0;whiteSpace=wrap;html=1;fontSize=24;fillColor=#dae8fc;strokeColor=#6c8ebf;" parent="iv7uDxefKVzlSarNW6j3-1" vertex="1">
                    <mxGeometry x="130" y="105" width="310" height="20" as="geometry"/>
                </mxCell>
                <mxCell id="iv7uDxefKVzlSarNW6j3-11" value="" style="rounded=0;whiteSpace=wrap;html=1;fontSize=24;fillColor=#dae8fc;strokeColor=#6c8ebf;" parent="iv7uDxefKVzlSarNW6j3-1" vertex="1">
                    <mxGeometry x="130" y="156" width="260" height="20" as="geometry"/>
                </mxCell>
                <mxCell id="iv7uDxefKVzlSarNW6j3-12" value="" style="rounded=0;whiteSpace=wrap;html=1;fontSize=24;fillColor=#dae8fc;strokeColor=#6c8ebf;" parent="iv7uDxefKVzlSarNW6j3-1" vertex="1">
                    <mxGeometry x="130" y="205" width="220" height="20" as="geometry"/>
                </mxCell>
                <mxCell id="iv7uDxefKVzlSarNW6j3-13" value="" style="rounded=0;whiteSpace=wrap;html=1;fontSize=24;fillColor=#dae8fc;strokeColor=#6c8ebf;" parent="iv7uDxefKVzlSarNW6j3-1" vertex="1">
                    <mxGeometry x="130" y="256" width="60" height="20" as="geometry"/>
                </mxCell>
                <mxCell id="iv7uDxefKVzlSarNW6j3-14" value="START" style="dashed=0;align=center;fontSize=21;shape=rect;fillColor=#2196F3;strokeColor=none;fontStyle=1;shadow=1;fontColor=#ffffff;" parent="iv7uDxefKVzlSarNW6j3-1" vertex="1">
                    <mxGeometry x="222" y="750" width="140" height="56" as="geometry"/>
                </mxCell>
                <mxCell id="iv7uDxefKVzlSarNW6j3-15" value="比赛记录" style="text;html=1;align=center;verticalAlign=middle;resizable=0;points=[];autosize=1;fontSize=30;fontColor=#3399FF;" parent="iv7uDxefKVzlSarNW6j3-1" vertex="1">
                    <mxGeometry x="130" y="430" width="140" height="40" as="geometry"/>
                </mxCell>
                <mxCell id="iv7uDxefKVzlSarNW6j3-16" value="wei" style="text;html=1;align=center;verticalAlign=middle;resizable=0;points=[];autosize=1;fontSize=18;" parent="iv7uDxefKVzlSarNW6j3-1" vertex="1">
                    <mxGeometry x="35" y="547" width="40" height="30" as="geometry"/>
                </mxCell>
                <mxCell id="iv7uDxefKVzlSarNW6j3-17" value="kin" style="text;html=1;align=center;verticalAlign=middle;resizable=0;points=[];autosize=1;fontSize=18;" parent="iv7uDxefKVzlSarNW6j3-1" vertex="1">
                    <mxGeometry x="35" y="577" width="40" height="30" as="geometry"/>
                </mxCell>
                <mxCell id="iv7uDxefKVzlSarNW6j3-18" value="cheng" style="text;html=1;align=center;verticalAlign=middle;resizable=0;points=[];autosize=1;fontSize=18;" parent="iv7uDxefKVzlSarNW6j3-1" vertex="1">
                    <mxGeometry x="12" y="597" width="60" height="30" as="geometry"/>
                </mxCell>
                <mxCell id="iv7uDxefKVzlSarNW6j3-19" value="gui" style="text;html=1;align=center;verticalAlign=middle;resizable=0;points=[];autosize=1;fontSize=18;" parent="iv7uDxefKVzlSarNW6j3-1" vertex="1">
                    <mxGeometry x="35" y="630" width="40" height="30" as="geometry"/>
                </mxCell>
                <mxCell id="iv7uDxefKVzlSarNW6j3-20" value="21:&lt;font color=&quot;#ff3333&quot;&gt;13&lt;/font&gt;" style="text;html=1;align=center;verticalAlign=middle;resizable=0;points=[];autosize=1;fontSize=18;fontColor=#3399FF;" parent="iv7uDxefKVzlSarNW6j3-1" vertex="1">
                    <mxGeometry x="139" y="670" width="60" height="30" as="geometry"/>
                </mxCell>
                <mxCell id="iv7uDxefKVzlSarNW6j3-21" value="" style="rounded=0;whiteSpace=wrap;html=1;fontSize=18;fontColor=#3399FF;fillColor=#3399FF;strokeColor=none;" parent="iv7uDxefKVzlSarNW6j3-1" vertex="1">
                    <mxGeometry x="163" y="554" width="10" height="20" as="geometry"/>
                </mxCell>
                <mxCell id="iv7uDxefKVzlSarNW6j3-22" value="" style="rounded=0;whiteSpace=wrap;html=1;fontSize=18;fontColor=#3399FF;fillColor=#3399FF;strokeColor=none;" parent="iv7uDxefKVzlSarNW6j3-1" vertex="1">
                    <mxGeometry x="163" y="580" width="10" height="20" as="geometry"/>
                </mxCell>
                <mxCell id="iv7uDxefKVzlSarNW6j3-23" value="" style="rounded=0;whiteSpace=wrap;html=1;fontSize=18;fontColor=#3399FF;strokeColor=none;fillColor=#FF3333;" parent="iv7uDxefKVzlSarNW6j3-1" vertex="1">
                    <mxGeometry x="164" y="610" width="10" height="20" as="geometry"/>
                </mxCell>
                <mxCell id="iv7uDxefKVzlSarNW6j3-24" value="" style="rounded=0;whiteSpace=wrap;html=1;fontSize=18;fontColor=#3399FF;strokeColor=none;fillColor=#FF3333;" parent="iv7uDxefKVzlSarNW6j3-1" vertex="1">
                    <mxGeometry x="164" y="639" width="10" height="20" as="geometry"/>
                </mxCell>
                <mxCell id="iv7uDxefKVzlSarNW6j3-25" value="2022-07-23&lt;br style=&quot;font-size: 13px;&quot;&gt;12:32～12:44" style="text;html=1;align=center;verticalAlign=middle;resizable=0;points=[];autosize=1;fontSize=13;fontColor=#3399FF;" parent="iv7uDxefKVzlSarNW6j3-1" vertex="1">
                    <mxGeometry x="124" y="507" width="90" height="40" as="geometry"/>
                </mxCell>
            </root>
        </mxGraphModel>
    </diagram>
    <diagram id="6-0HrUiZzSu6H4tLLw4V" name="score">
        <mxGraphModel dx="993" dy="793" grid="0" gridSize="10" guides="1" tooltips="1" connect="1" arrows="1" fold="1" page="1" pageScale="1" pageWidth="583" pageHeight="827" math="0" shadow="0">
            <root>
                <mxCell id="TbVSNd_-EmTx4FZHRDHd-0"/>
                <mxCell id="TbVSNd_-EmTx4FZHRDHd-1" parent="TbVSNd_-EmTx4FZHRDHd-0"/>
                <mxCell id="toAb7sRxo9nB8vcU1D7d-0" value="wei 个人记录" style="text;html=1;align=center;verticalAlign=middle;resizable=0;points=[];autosize=1;fontSize=22;fontColor=#3399FF;" parent="TbVSNd_-EmTx4FZHRDHd-1" vertex="1">
                    <mxGeometry x="60" y="30" width="140" height="30" as="geometry"/>
                </mxCell>
            </root>
        </mxGraphModel>
    </diagram>
    <diagram id="ZCdSbIuKPJywWfi7SU50" name="match">
        <mxGraphModel dx="993" dy="793" grid="0" gridSize="10" guides="1" tooltips="1" connect="1" arrows="1" fold="1" page="1" pageScale="1" pageWidth="827" pageHeight="583" math="0" shadow="0">
            <root>
                <mxCell id="k3mdJ5X6O4BlrFGdTsaJ-0"/>
                <mxCell id="k3mdJ5X6O4BlrFGdTsaJ-1" parent="k3mdJ5X6O4BlrFGdTsaJ-0"/>
                <mxCell id="k3mdJ5X6O4BlrFGdTsaJ-2" value="12:&lt;font color=&quot;#ff3333&quot;&gt;4&lt;/font&gt;" style="text;html=1;align=center;verticalAlign=middle;resizable=0;points=[];autosize=1;fontSize=70;fontColor=#3399FF;" parent="k3mdJ5X6O4BlrFGdTsaJ-1" vertex="1">
                    <mxGeometry x="320" y="10" width="150" height="90" as="geometry"/>
                </mxCell>
                <mxCell id="k3mdJ5X6O4BlrFGdTsaJ-3" value="" style="endArrow=none;html=1;strokeColor=#858585;strokeWidth=3;fontSize=70;fontColor=#3399FF;" parent="k3mdJ5X6O4BlrFGdTsaJ-1" edge="1">
                    <mxGeometry width="50" height="50" relative="1" as="geometry">
                        <mxPoint x="400" y="110" as="sourcePoint"/>
                        <mxPoint x="400" y="560" as="targetPoint"/>
                    </mxGeometry>
                </mxCell>
                <mxCell id="k3mdJ5X6O4BlrFGdTsaJ-4" value="wei" style="text;html=1;align=center;verticalAlign=middle;resizable=0;points=[];autosize=1;fontSize=40;" parent="k3mdJ5X6O4BlrFGdTsaJ-1" vertex="1">
                    <mxGeometry x="60" y="140" width="80" height="50" as="geometry"/>
                </mxCell>
                <mxCell id="k3mdJ5X6O4BlrFGdTsaJ-5" value="kin" style="text;html=1;align=center;verticalAlign=middle;resizable=0;points=[];autosize=1;fontSize=40;" parent="k3mdJ5X6O4BlrFGdTsaJ-1" vertex="1">
                    <mxGeometry x="245" y="140" width="70" height="50" as="geometry"/>
                </mxCell>
                <mxCell id="k3mdJ5X6O4BlrFGdTsaJ-6" value="cheng" style="text;html=1;align=center;verticalAlign=middle;resizable=0;points=[];autosize=1;fontSize=40;" parent="k3mdJ5X6O4BlrFGdTsaJ-1" vertex="1">
                    <mxGeometry x="480" y="140" width="120" height="50" as="geometry"/>
                </mxCell>
                <mxCell id="k3mdJ5X6O4BlrFGdTsaJ-7" value="gui" style="text;html=1;align=center;verticalAlign=middle;resizable=0;points=[];autosize=1;fontSize=40;" parent="k3mdJ5X6O4BlrFGdTsaJ-1" vertex="1">
                    <mxGeometry x="690" y="140" width="70" height="50" as="geometry"/>
                </mxCell>
                <mxCell id="k3mdJ5X6O4BlrFGdTsaJ-8" value="GOAL" style="dashed=0;align=center;fontSize=30;shape=rect;fillColor=#2196F3;strokeColor=none;fontStyle=1;shadow=1;fontColor=#ffffff;" parent="k3mdJ5X6O4BlrFGdTsaJ-1" vertex="1">
                    <mxGeometry x="30" y="210" width="140" height="120" as="geometry"/>
                </mxCell>
                <mxCell id="k3mdJ5X6O4BlrFGdTsaJ-9" value="GOAL" style="dashed=0;align=center;fontSize=30;shape=rect;fillColor=#2196F3;strokeColor=none;fontStyle=1;shadow=1;fontColor=#ffffff;" parent="k3mdJ5X6O4BlrFGdTsaJ-1" vertex="1">
                    <mxGeometry x="210" y="210" width="140" height="120" as="geometry"/>
                </mxCell>
                <mxCell id="k3mdJ5X6O4BlrFGdTsaJ-10" value="GOAL" style="dashed=0;align=center;fontSize=30;shape=rect;fillColor=#2196F3;strokeColor=none;fontStyle=1;shadow=1;fontColor=#ffffff;" parent="k3mdJ5X6O4BlrFGdTsaJ-1" vertex="1">
                    <mxGeometry x="470" y="210" width="140" height="120" as="geometry"/>
                </mxCell>
                <mxCell id="k3mdJ5X6O4BlrFGdTsaJ-11" value="GOAL" style="dashed=0;align=center;fontSize=30;shape=rect;fillColor=#2196F3;strokeColor=none;fontStyle=1;shadow=1;fontColor=#ffffff;" parent="k3mdJ5X6O4BlrFGdTsaJ-1" vertex="1">
                    <mxGeometry x="655" y="210" width="140" height="120" as="geometry"/>
                </mxCell>
                <mxCell id="k3mdJ5X6O4BlrFGdTsaJ-12" value="LOSS" style="dashed=0;align=center;fontSize=30;shape=rect;strokeColor=none;fontStyle=1;shadow=1;fontColor=#ffffff;fillColor=#FF3333;" parent="k3mdJ5X6O4BlrFGdTsaJ-1" vertex="1">
                    <mxGeometry x="30" y="370" width="140" height="120" as="geometry"/>
                </mxCell>
                <mxCell id="k3mdJ5X6O4BlrFGdTsaJ-13" value="LOSS" style="dashed=0;align=center;fontSize=30;shape=rect;strokeColor=none;fontStyle=1;shadow=1;fontColor=#ffffff;fillColor=#FF3333;" parent="k3mdJ5X6O4BlrFGdTsaJ-1" vertex="1">
                    <mxGeometry x="210" y="370" width="140" height="120" as="geometry"/>
                </mxCell>
                <mxCell id="k3mdJ5X6O4BlrFGdTsaJ-14" value="LOSS" style="dashed=0;align=center;fontSize=30;shape=rect;strokeColor=none;fontStyle=1;shadow=1;fontColor=#ffffff;fillColor=#FF3333;" parent="k3mdJ5X6O4BlrFGdTsaJ-1" vertex="1">
                    <mxGeometry x="470" y="370" width="140" height="120" as="geometry"/>
                </mxCell>
                <mxCell id="k3mdJ5X6O4BlrFGdTsaJ-15" value="LOSS" style="dashed=0;align=center;fontSize=30;shape=rect;strokeColor=none;fontStyle=1;shadow=1;fontColor=#ffffff;fillColor=#FF3333;" parent="k3mdJ5X6O4BlrFGdTsaJ-1" vertex="1">
                    <mxGeometry x="655" y="370" width="140" height="120" as="geometry"/>
                </mxCell>
                <mxCell id="k3mdJ5X6O4BlrFGdTsaJ-16" value="REVERT" style="dashed=0;align=center;fontSize=12;shape=rect;fillColor=#e0e0e0;strokeColor=none;fontStyle=1;shadow=1" parent="k3mdJ5X6O4BlrFGdTsaJ-1" vertex="1">
                    <mxGeometry x="690" y="30" width="105" height="60" as="geometry"/>
                </mxCell>
            </root>
        </mxGraphModel>
    </diagram>
</mxfile>